<svg xmlns="http://www.w3.org/2000/svg" xmlns:xlink="http://www.w3.org/1999/xlink" version="1.1" x="0px" y="0px" style="enable-background:new 0 0 64 64;" xml:space="preserve" viewBox="0 3.89 64 56.21">
<g id="tv-01">
	<g>
		<path style="fill:#0E77F6;" d="M59.309,3.893H4.699C2.109,3.893,0,6.002,0,8.6v39.005c0,2.59,2.109,4.699,4.699,4.699h19.045    v6.199h-3.44v1.604h23.392v-1.604h-3.44v-6.199h19.053c2.582,0,4.691-2.109,4.691-4.699V8.6C64,6.002,61.891,3.893,59.309,3.893z     M38.652,58.503H25.348v-6.199h13.304V58.503z M62.396,47.605c0,1.708-1.387,3.095-3.087,3.095H4.699    c-1.708,0-3.095-1.387-3.095-3.095V8.6c0-1.708,1.387-3.103,3.095-3.103h54.61c1.7,0,3.087,1.395,3.087,3.103V47.605z"/>
		<path style="fill:#0E77F6;" d="M3.897,7.799v40.608h56.213V7.799H3.897z M58.507,46.803H5.501V9.402h53.006V46.803z"/>
		<rect x="5.501" y="9.402" style="fill:#BEDAFF;" width="53.006" height="37.401"/>
	</g>
</g>
<g id="Layer_1">
</g>
</svg>