<?xml version="1.0" encoding="UTF-8"?><svg id="a" xmlns="http://www.w3.org/2000/svg" viewBox="0 0 64 56.21"><defs><style>.c{fill:#fff;}.d{fill:#bedaff;}.e{fill:#0e77f6;}</style></defs><g id="b"><rect class="c" x="1.35" y="1.412" width="61.369" height="46.167" rx="2.347" ry="2.347"/><g><path class="e" d="M59.309,.003H4.699C2.109,.003,0,2.112,0,4.71V43.715c0,2.59,2.109,4.699,4.699,4.699H23.744v6.199h-3.44v1.604h23.392v-1.604h-3.44v-6.199h19.053c2.582,0,4.691-2.109,4.691-4.699V4.71C64,2.112,61.891,.003,59.309,.003Zm-20.657,54.61h-13.304v-6.199h13.304v6.199Zm23.744-10.898c0,1.708-1.387,3.095-3.087,3.095H4.699c-1.708,0-3.095-1.387-3.095-3.095V4.71c0-1.708,1.387-3.103,3.095-3.103H59.309c1.7,0,3.087,1.395,3.087,3.103V43.715Z"/><path class="e" d="M3.897,3.909V44.517H60.11V3.909H3.897ZM58.507,42.913H5.501V5.512H58.507V42.913Z"/><rect class="d" x="5.501" y="5.512" width="53.006" height="37.401"/></g></g></svg>