<svg id="Capa_1" enable-background="new 0 0 512 512" viewBox="0 0 512 512" xmlns="http://www.w3.org/2000/svg"><g><g><circle cx="256" cy="256" fill="#eaf6ff" r="230.789"/><path d="m256 7.5c-137.243 0-248.5 111.257-248.5 248.5s111.257 248.5 248.5 248.5 248.5-111.257 248.5-248.5-111.257-248.5-248.5-248.5zm152.859 401.359c-40.83 40.83-95.117 63.316-152.859 63.316s-112.028-22.486-152.859-63.316-63.316-95.117-63.316-152.859 22.486-112.028 63.316-152.859 95.117-63.316 152.859-63.316 112.028 22.486 152.859 63.316 63.316 95.117 63.316 152.859-22.486 112.028-63.316 152.859z" fill="#8ac9fe"/><path d="m419.359 68.749c38.138 43.68 61.249 100.818 61.249 163.359 0 43.538-11.21 84.454-30.881 120.039-10.31 20.724-24.023 39.865-40.869 56.711s-35.986 30.559-56.711 40.869c-35.586 19.671-76.501 30.881-120.039 30.881-62.541 0-119.68-23.111-163.359-61.249 45.554 52.173 112.55 85.141 187.251 85.141 137.243 0 248.5-111.257 248.5-248.5 0-74.701-32.968-141.697-85.141-187.251z" fill="#60b7ff"/><g><g fill="#60b7ff"><path d="m213.67 256c0-12.826-3.759-24.786-10.229-34.845-5.93-9.22-19.191-9.838-25.978-1.23-.077.097-.153.194-.229.291-4.223 5.356-4.528 12.769-.879 18.532 3.16 4.991 4.991 10.907 4.991 17.252s-1.831 12.261-4.991 17.252c-3.649 5.763-3.342 13.177.881 18.533l.23.292c6.787 8.609 20.046 7.988 25.976-1.232 6.47-10.059 10.228-22.019 10.228-34.845z"/><path d="m278.321 256c0-34.534-13.61-65.947-35.746-89.162-6.716-7.044-18.108-6.53-24.134 1.113-.075.095-.15.191-.225.286-4.883 6.194-4.581 15.087.871 20.788 16.661 17.421 26.909 41.024 26.909 66.976s-10.248 49.554-26.909 66.976c-5.452 5.7-5.753 14.595-.87 20.789l.225.285c6.026 7.643 17.417 8.156 24.134 1.112 22.135-23.216 35.745-54.629 35.745-89.163z"/><path d="m342.971 256c0-55.446-23.389-105.529-60.817-140.909-6.792-6.421-17.66-5.551-23.447 1.789-.075.095-.15.19-.225.286-5.142 6.522-4.384 15.85 1.644 21.563 31.096 29.475 50.519 71.147 50.519 117.272s-19.424 87.797-50.519 117.272c-6.028 5.714-6.786 15.041-1.644 21.563l.225.286c5.787 7.34 16.655 8.21 23.447 1.789 37.428-35.382 60.817-85.465 60.817-140.911z"/></g></g></g><g><path d="m96.095 110.321c-3.152-2.686-7.886-2.309-10.573.844-34.301 40.25-53.192 91.687-53.192 144.835 0 60.098 23.407 116.437 65.909 158.636 42.238 41.938 98.265 65.034 157.761 65.034 60.098 0 116.437-23.407 158.636-65.909 41.938-42.238 65.034-98.265 65.034-157.761 0-60.098-23.407-116.437-65.909-158.636-42.238-41.938-98.265-65.034-157.761-65.034-53.148 0-104.585 18.891-144.835 53.191-3.152 2.687-3.53 7.42-.844 10.573 2.688 3.152 7.42 3.531 10.573.844 37.539-31.99 85.52-49.608 135.106-49.608 55.51 0 107.784 21.549 147.193 60.678 39.644 39.362 61.477 91.92 61.477 147.992 0 55.51-21.549 107.784-60.678 147.193-39.363 39.644-91.921 61.477-147.992 61.477-55.51 0-107.784-21.549-147.193-60.678-39.644-39.363-61.477-91.921-61.477-147.992 0-49.586 17.618-97.567 49.608-135.105 2.687-3.153 2.309-7.887-.843-10.574z"/><path d="m171.343 296.426.232.295c4.457 5.652 11.287 8.944 18.45 8.944.373 0 .748-.009 1.123-.027 7.558-.363 14.511-4.376 18.601-10.735 7.472-11.617 11.422-25.069 11.422-38.903s-3.95-27.286-11.421-38.902c-4.089-6.358-11.042-10.371-18.6-10.734-7.572-.372-14.887 2.97-19.575 8.916l-.231.293c-6.15 7.801-6.683 18.727-1.326 27.188 2.504 3.954 3.828 8.532 3.828 13.24s-1.324 9.286-3.828 13.241c-5.358 8.46-4.824 19.386 1.325 27.184zm11.782-71.569.228-.289c1.631-2.069 4.036-3.232 6.65-3.232.141 0 .283.003.426.01 2.766.133 5.21 1.542 6.705 3.866 5.912 9.191 9.037 19.837 9.037 30.788s-3.125 21.597-9.038 30.788c-1.495 2.325-3.939 3.734-6.705 3.867-2.776.131-5.354-1.041-7.071-3.218l-.232-.295c-2.219-2.814-2.393-6.783-.434-9.877 4.026-6.359 6.155-13.712 6.155-21.265s-2.128-14.906-6.154-21.264c-1.961-3.095-1.787-7.064.433-9.879z"/><path d="m229.877 154.396c-6.798.319-13.113 3.567-17.322 8.906l-.229.291c-7.197 9.128-6.622 22.29 1.34 30.615 16.012 16.743 24.83 38.688 24.83 61.792s-8.818 45.049-24.83 61.792c-7.961 8.325-8.537 21.487-1.337 30.618l.223.283c4.213 5.343 10.528 8.591 17.325 8.911.37.017.738.026 1.106.026 6.415 0 12.566-2.623 17.019-7.292 24.388-25.576 37.818-59.079 37.818-94.337s-13.431-68.762-37.818-94.337c-4.708-4.939-11.304-7.593-18.125-7.268zm40.944 101.604c0 31.386-11.959 61.213-33.674 83.986-1.732 1.817-4.056 2.748-6.565 2.635-2.488-.117-4.708-1.259-6.252-3.217l-.223-.283c-2.598-3.294-2.425-8.007.4-10.962 18.694-19.547 28.989-45.174 28.989-72.159s-10.295-52.612-28.989-72.159c-2.826-2.955-2.999-7.667-.391-10.974l.214-.272c1.542-1.956 3.762-3.098 6.251-3.215.14-.007.28-.01.419-.01 2.342 0 4.511.93 6.146 2.644 21.716 22.773 33.675 52.6 33.675 83.986z"/><path d="m333.104 317.568c3.976 1.163 8.141-1.116 9.304-5.092 5.35-18.285 8.062-37.286 8.062-56.476 0-28.151-5.724-55.406-17.011-81.007-10.898-24.716-26.427-46.704-46.156-65.353-4.741-4.482-11.202-6.779-17.732-6.3-6.525.479-12.591 3.68-16.666 8.79-.055.066-.11.134-.167.205-.051.062-.102.124-.152.187-7.551 9.592-6.527 23.199 2.383 31.652 31.069 29.45 48.18 69.164 48.18 111.827s-17.11 82.377-48.182 111.829c-8.913 8.455-9.935 22.059-2.365 31.661l.214.271c4.075 5.174 10.181 8.418 16.753 8.9.568.042 1.135.062 1.702.062 5.938 0 11.702-2.27 16.03-6.362 17.131-16.197 31.173-35.036 41.735-55.994 1.864-3.699.376-8.209-3.322-10.073-3.699-1.863-8.208-.377-10.073 3.322-9.778 19.402-22.78 36.846-38.645 51.846-1.711 1.618-3.958 2.412-6.33 2.24-2.415-.177-4.569-1.321-6.08-3.24l-.217-.273c-2.726-3.458-2.33-8.391.92-11.474 34.087-32.312 52.86-75.892 52.86-122.713s-18.773-90.402-52.858-122.711c-3.227-3.062-3.64-7.951-.979-11.412.045-.056.091-.112.138-.171.051-.061.102-.123.151-.186 1.496-1.899 3.65-3.043 6.065-3.22 2.375-.173 4.619.622 6.331 2.24 18.27 17.27 32.648 37.626 42.736 60.504 10.442 23.683 15.736 48.901 15.736 74.956 0 17.764-2.509 35.348-7.458 52.264-1.162 3.973 1.117 8.138 5.093 9.301z"/><path d="m437.019 74.981c-48.353-48.352-112.64-74.981-181.019-74.981s-132.666 26.629-181.019 74.981c-48.352 48.353-74.981 112.64-74.981 181.019s26.629 132.666 74.981 181.019c48.353 48.352 112.64 74.981 181.019 74.981 61.629 0 121.192-22.227 167.714-62.584 3.129-2.714 3.465-7.451.751-10.58s-7.451-3.465-10.58-.751c-43.795 37.992-99.866 58.915-157.885 58.915-64.372 0-124.892-25.069-170.412-70.588s-70.588-106.04-70.588-170.412 25.069-124.892 70.588-170.412 106.04-70.588 170.412-70.588 124.892 25.069 170.412 70.588 70.588 106.04 70.588 170.412c0 58.102-20.971 114.228-59.051 158.04-2.717 3.126-2.386 7.863.741 10.581 3.126 2.718 7.864 2.386 10.581-.741 40.451-46.541 62.729-106.162 62.729-167.88 0-68.379-26.629-132.666-74.981-181.019z"/></g></g><g/><g/><g/><g/><g/><g/><g/><g/><g/><g/><g/><g/><g/><g/><g/></svg>