<?xml version="1.0" encoding="UTF-8"?><svg xmlns="http://www.w3.org/2000/svg" viewBox="0 0 64 43.86"><defs><style>.d{fill:#fd8d63;}.e{fill:#fff;}.f{fill:#9b482f;}.g{fill:#ffda93;}</style></defs><g id="a"><rect class="e" x="14.683" y=".951" width="34.902" height="16.61"/><rect class="e" x="3.122" y="19.171" width="6.08" height="12.585"/><rect class="e" x="7.193" y="32.854" width="50.295" height="7.829"/></g><g id="b"><g id="c"><path class="f" d="M6.194,19.854c-1.373,0-2.49,1.117-2.49,2.492s1.117,2.49,2.49,2.49,2.492-1.117,2.492-2.49-1.118-2.492-2.492-2.492Zm0,3.491c-.55,0-.999-.449-.999-.999s.449-.999,.999-.999,.999,.447,.999,.999-.447,.999-.999,.999Zm0,2.474c-1.373,0-2.49,1.117-2.49,2.49s1.117,2.492,2.49,2.492,2.492-1.119,2.492-2.492-1.118-2.49-2.492-2.49Zm0,3.489c-.55,0-.999-.447-.999-.999s.449-.999,.999-.999,.999,.449,.999,.999-.447,.999-.999,.999Zm46.699,3.962H11.107c-1.873,0-3.396,1.523-3.396,3.396s1.523,3.396,3.396,3.396H52.892c1.871,0,3.396-1.523,3.396-3.396s-1.524-3.396-3.395-3.396Zm0,5.3H11.107c-1.051,0-1.905-.855-1.905-1.905s.853-1.905,1.905-1.905H52.892c1.05,0,1.905,.855,1.905,1.905,0,1.05-.855,1.905-1.904,1.905Zm0-5.3H11.107c-1.873,0-3.396,1.523-3.396,3.396s1.523,3.396,3.396,3.396H52.892c1.871,0,3.396-1.523,3.396-3.396s-1.524-3.396-3.395-3.396Zm0,5.3H11.107c-1.051,0-1.905-.855-1.905-1.905s.853-1.905,1.905-1.905H52.892c1.05,0,1.905,.855,1.905,1.905,0,1.05-.855,1.905-1.904,1.905ZM6.194,19.854c-1.373,0-2.49,1.117-2.49,2.492s1.117,2.49,2.49,2.49,2.492-1.117,2.492-2.49-1.118-2.492-2.492-2.492Zm0,3.491c-.55,0-.999-.449-.999-.999s.449-.999,.999-.999,.999,.447,.999,.999-.447,.999-.999,.999Zm0,2.474c-1.373,0-2.49,1.117-2.49,2.49s1.117,2.492,2.49,2.492,2.492-1.119,2.492-2.492-1.118-2.49-2.492-2.49Zm0,3.489c-.55,0-.999-.447-.999-.999s.449-.999,.999-.999,.999,.449,.999,.999-.447,.999-.999,.999Zm0-3.489c-1.373,0-2.49,1.117-2.49,2.49s1.117,2.492,2.49,2.492,2.492-1.119,2.492-2.492-1.118-2.49-2.492-2.49Zm0,3.489c-.55,0-.999-.447-.999-.999s.449-.999,.999-.999,.999,.449,.999,.999-.447,.999-.999,.999Zm0-9.454c-1.373,0-2.49,1.117-2.49,2.492s1.117,2.49,2.49,2.49,2.492-1.117,2.492-2.49-1.118-2.492-2.492-2.492Zm0,3.491c-.55,0-.999-.449-.999-.999s.449-.999,.999-.999,.999,.447,.999,.999-.447,.999-.999,.999Zm46.699,9.925H11.107c-1.873,0-3.396,1.523-3.396,3.396s1.523,3.396,3.396,3.396H52.892c1.871,0,3.396-1.523,3.396-3.396s-1.524-3.396-3.395-3.396Zm0,5.3H11.107c-1.051,0-1.905-.855-1.905-1.905s.853-1.905,1.905-1.905H52.892c1.05,0,1.905,.855,1.905,1.905,0,1.05-.855,1.905-1.904,1.905Zm0-5.3H11.107c-1.873,0-3.396,1.523-3.396,3.396s1.523,3.396,3.396,3.396H52.892c1.871,0,3.396-1.523,3.396-3.396s-1.524-3.396-3.395-3.396Zm0,5.3H11.107c-1.051,0-1.905-.855-1.905-1.905s.853-1.905,1.905-1.905H52.892c1.05,0,1.905,.855,1.905,1.905,0,1.05-.855,1.905-1.904,1.905ZM6.194,24.836c1.373,0,2.492-1.117,2.492-2.49s-1.119-2.492-2.492-2.492-2.49,1.117-2.49,2.492c0,1.373,1.117,2.49,2.49,2.49Zm0-3.489c.552,0,.999,.447,.999,.999s-.447,.999-.999,.999-.999-.449-.999-.999c0-.552,.449-.999,.999-.999Zm2.492,6.962c0-1.373-1.119-2.49-2.492-2.49s-2.49,1.117-2.49,2.49,1.117,2.492,2.49,2.492,2.492-1.119,2.492-2.492Zm-2.492,.999c-.55,0-.999-.447-.999-.999s.449-.999,.999-.999,.999,.449,.999,.999-.447,.999-.999,.999Zm55.568-12.29h-4.802v-6.868c0-.412-.333-.746-.745-.746h-5.975V.746c0-.412-.335-.745-.746-.745H14.505c-.412,0-.745,.333-.745,.745V9.404H7.785c-.412,0-.746,.335-.746,.746v6.868H2.238c-1.235,0-2.238,1.005-2.238,2.238v22.366c0,1.235,1.003,2.238,2.238,2.238H61.763c1.233,0,2.238-1.003,2.238-2.238V19.256c0-1.233-1.006-2.238-2.239-2.238Zm-11.522-6.121h5.229v6.121h-5.229v-6.121ZM15.251,1.492H48.747v15.526H15.251V1.492Zm-6.72,9.405h5.229v6.121h-5.229v-6.121Zm53.976,30.725c0,.412-.333,.746-.745,.746H2.238c-.412,0-.746-.335-.746-.746V19.256c0-.412,.335-.745,.746-.745H61.763c.412,0,.745,.333,.745,.745v22.366h0Zm-9.614-8.352H11.107c-1.873,0-3.396,1.523-3.396,3.396s1.523,3.396,3.396,3.396H52.892c1.871,0,3.396-1.523,3.396-3.396s-1.524-3.396-3.395-3.396Zm0,5.3H11.107c-1.051,0-1.905-.855-1.905-1.905s.853-1.905,1.905-1.905H52.892c1.05,0,1.905,.855,1.905,1.905,0,1.05-.855,1.905-1.904,1.905ZM6.194,24.836c1.373,0,2.492-1.117,2.492-2.49s-1.119-2.492-2.492-2.492-2.49,1.117-2.49,2.492c0,1.373,1.117,2.49,2.49,2.49Zm0-3.489c.552,0,.999,.447,.999,.999s-.447,.999-.999,.999-.999-.449-.999-.999c0-.552,.449-.999,.999-.999Zm2.492,6.962c0-1.373-1.119-2.49-2.492-2.49s-2.49,1.117-2.49,2.49,1.117,2.492,2.49,2.492,2.492-1.119,2.492-2.492Zm-2.492,.999c-.55,0-.999-.447-.999-.999s.449-.999,.999-.999,.999,.449,.999,.999-.447,.999-.999,.999Zm0-3.489c-1.373,0-2.49,1.117-2.49,2.49s1.117,2.492,2.49,2.492,2.492-1.119,2.492-2.492-1.118-2.49-2.492-2.49Zm0,3.489c-.55,0-.999-.447-.999-.999s.449-.999,.999-.999,.999,.449,.999,.999-.447,.999-.999,.999Zm0-9.454c-1.373,0-2.49,1.117-2.49,2.492s1.117,2.49,2.49,2.49,2.492-1.117,2.492-2.49-1.118-2.492-2.492-2.492Zm0,3.491c-.55,0-.999-.449-.999-.999s.449-.999,.999-.999,.999,.447,.999,.999-.447,.999-.999,.999Zm46.699,9.925H11.107c-1.873,0-3.396,1.523-3.396,3.396s1.523,3.396,3.396,3.396H52.892c1.871,0,3.396-1.523,3.396-3.396s-1.524-3.396-3.395-3.396Zm0,5.3H11.107c-1.051,0-1.905-.855-1.905-1.905s.853-1.905,1.905-1.905H52.892c1.05,0,1.905,.855,1.905,1.905,0,1.05-.855,1.905-1.904,1.905Zm0-5.3H11.107c-1.873,0-3.396,1.523-3.396,3.396s1.523,3.396,3.396,3.396H52.892c1.871,0,3.396-1.523,3.396-3.396s-1.524-3.396-3.395-3.396Zm0,5.3H11.107c-1.051,0-1.905-.855-1.905-1.905s.853-1.905,1.905-1.905H52.892c1.05,0,1.905,.855,1.905,1.905,0,1.05-.855,1.905-1.904,1.905ZM6.194,19.854c-1.373,0-2.49,1.117-2.49,2.492s1.117,2.49,2.49,2.49,2.492-1.117,2.492-2.49-1.118-2.492-2.492-2.492Zm0,3.491c-.55,0-.999-.449-.999-.999s.449-.999,.999-.999,.999,.447,.999,.999-.447,.999-.999,.999Zm0,2.474c-1.373,0-2.49,1.117-2.49,2.49s1.117,2.492,2.49,2.492,2.492-1.119,2.492-2.492-1.118-2.49-2.492-2.49Zm0,3.489c-.55,0-.999-.447-.999-.999s.449-.999,.999-.999,.999,.449,.999,.999-.447,.999-.999,.999Z"/><path class="g" d="M13.76,10.897v6.121h-5.229v-6.121h5.229Zm36.48,0v6.121h5.229v-6.121h-5.229Z"/><path class="d" d="M61.762,18.511H2.238c-.412,0-.746,.333-.746,.745v22.366c0,.412,.335,.746,.746,.746H61.763c.412,0,.745-.335,.745-.746V19.256c0-.412-.334-.745-.746-.745Zm-55.568,1.343c1.373,0,2.492,1.117,2.492,2.492s-1.119,2.49-2.492,2.49-2.49-1.117-2.49-2.49c0-1.375,1.117-2.492,2.49-2.492Zm-2.49,8.455c0-1.373,1.117-2.49,2.49-2.49s2.492,1.117,2.492,2.49-1.119,2.492-2.492,2.492-2.49-1.119-2.49-2.492Zm49.189,11.752H11.107c-1.873,0-3.396-1.523-3.396-3.396s1.523-3.396,3.396-3.396H52.892c1.871,0,3.396,1.523,3.396,3.396s-1.524,3.396-3.395,3.396Z"/></g></g></svg>