<svg xmlns="http://www.w3.org/2000/svg" xmlns:xlink="http://www.w3.org/1999/xlink" version="1.1" x="0px" y="0px" style="enable-background:new 0 0 64 64;" xml:space="preserve" viewBox="0 10.07 64 43.86">
<g id="printer-13">
	<path style="fill:#9B482F;" d="M6.194,29.924c-1.373,0-2.49,1.117-2.49,2.492c0,1.373,1.117,2.49,2.49,2.49s2.492-1.117,2.492-2.49   C8.686,31.041,7.568,29.924,6.194,29.924z M6.194,33.415c-0.55,0-0.999-0.449-0.999-0.999c0-0.552,0.449-0.999,0.999-0.999   c0.552,0,0.999,0.447,0.999,0.999C7.193,32.966,6.746,33.415,6.194,33.415z M6.194,35.889c-1.373,0-2.49,1.117-2.49,2.49   s1.117,2.492,2.49,2.492s2.492-1.119,2.492-2.492S7.568,35.889,6.194,35.889z M6.194,39.378c-0.55,0-0.999-0.447-0.999-0.999   c0-0.55,0.449-0.999,0.999-0.999c0.552,0,0.999,0.449,0.999,0.999C7.193,38.931,6.746,39.378,6.194,39.378z M52.893,43.34H11.107   c-1.873,0-3.396,1.523-3.396,3.396c0,1.873,1.523,3.396,3.396,3.396h41.785c1.871,0,3.396-1.523,3.396-3.396   C56.288,44.863,54.764,43.34,52.893,43.34z M52.893,48.64H11.107c-1.051,0-1.905-0.855-1.905-1.905c0-1.05,0.853-1.905,1.905-1.905   h41.785c1.05,0,1.905,0.855,1.905,1.905C54.797,47.785,53.942,48.64,52.893,48.64z M52.893,43.34H11.107   c-1.873,0-3.396,1.523-3.396,3.396c0,1.873,1.523,3.396,3.396,3.396h41.785c1.871,0,3.396-1.523,3.396-3.396   C56.288,44.863,54.764,43.34,52.893,43.34z M52.893,48.64H11.107c-1.051,0-1.905-0.855-1.905-1.905c0-1.05,0.853-1.905,1.905-1.905   h41.785c1.05,0,1.905,0.855,1.905,1.905C54.797,47.785,53.942,48.64,52.893,48.64z M6.194,29.924c-1.373,0-2.49,1.117-2.49,2.492   c0,1.373,1.117,2.49,2.49,2.49s2.492-1.117,2.492-2.49C8.686,31.041,7.568,29.924,6.194,29.924z M6.194,33.415   c-0.55,0-0.999-0.449-0.999-0.999c0-0.552,0.449-0.999,0.999-0.999c0.552,0,0.999,0.447,0.999,0.999   C7.193,32.966,6.746,33.415,6.194,33.415z M6.194,35.889c-1.373,0-2.49,1.117-2.49,2.49s1.117,2.492,2.49,2.492   s2.492-1.119,2.492-2.492S7.568,35.889,6.194,35.889z M6.194,39.378c-0.55,0-0.999-0.447-0.999-0.999   c0-0.55,0.449-0.999,0.999-0.999c0.552,0,0.999,0.449,0.999,0.999C7.193,38.931,6.746,39.378,6.194,39.378z M6.194,35.889   c-1.373,0-2.49,1.117-2.49,2.49s1.117,2.492,2.49,2.492s2.492-1.119,2.492-2.492S7.568,35.889,6.194,35.889z M6.194,39.378   c-0.55,0-0.999-0.447-0.999-0.999c0-0.55,0.449-0.999,0.999-0.999c0.552,0,0.999,0.449,0.999,0.999   C7.193,38.931,6.746,39.378,6.194,39.378z M6.194,29.924c-1.373,0-2.49,1.117-2.49,2.492c0,1.373,1.117,2.49,2.49,2.49   s2.492-1.117,2.492-2.49C8.686,31.041,7.568,29.924,6.194,29.924z M6.194,33.415c-0.55,0-0.999-0.449-0.999-0.999   c0-0.552,0.449-0.999,0.999-0.999c0.552,0,0.999,0.447,0.999,0.999C7.193,32.966,6.746,33.415,6.194,33.415z M52.893,43.34H11.107   c-1.873,0-3.396,1.523-3.396,3.396c0,1.873,1.523,3.396,3.396,3.396h41.785c1.871,0,3.396-1.523,3.396-3.396   C56.288,44.863,54.764,43.34,52.893,43.34z M52.893,48.64H11.107c-1.051,0-1.905-0.855-1.905-1.905c0-1.05,0.853-1.905,1.905-1.905   h41.785c1.05,0,1.905,0.855,1.905,1.905C54.797,47.785,53.942,48.64,52.893,48.64z M52.893,43.34H11.107   c-1.873,0-3.396,1.523-3.396,3.396c0,1.873,1.523,3.396,3.396,3.396h41.785c1.871,0,3.396-1.523,3.396-3.396   C56.288,44.863,54.764,43.34,52.893,43.34z M52.893,48.64H11.107c-1.051,0-1.905-0.855-1.905-1.905c0-1.05,0.853-1.905,1.905-1.905   h41.785c1.05,0,1.905,0.855,1.905,1.905C54.797,47.785,53.942,48.64,52.893,48.64z M6.194,34.906c1.373,0,2.492-1.117,2.492-2.49   c0-1.375-1.119-2.492-2.492-2.492s-2.49,1.117-2.49,2.492C3.704,33.789,4.821,34.906,6.194,34.906z M6.194,31.417   c0.552,0,0.999,0.447,0.999,0.999c0,0.55-0.447,0.999-0.999,0.999c-0.55,0-0.999-0.449-0.999-0.999   C5.195,31.864,5.644,31.417,6.194,31.417z M8.686,38.379c0-1.373-1.119-2.49-2.492-2.49s-2.49,1.117-2.49,2.49   s1.117,2.492,2.49,2.492S8.686,39.752,8.686,38.379z M6.194,39.378c-0.55,0-0.999-0.447-0.999-0.999   c0-0.55,0.449-0.999,0.999-0.999c0.552,0,0.999,0.449,0.999,0.999C7.193,38.931,6.746,39.378,6.194,39.378z M61.762,27.088H56.96   V20.22c0-0.412-0.333-0.746-0.745-0.746H50.24v-8.658c0-0.412-0.335-0.745-0.746-0.745H14.505c-0.412,0-0.745,0.333-0.745,0.745   v8.658H7.785c-0.412,0-0.746,0.335-0.746,0.746v6.868H2.238C1.003,27.088,0,28.093,0,29.326v22.366   c0,1.235,1.003,2.238,2.238,2.238h59.525c1.233,0,2.238-1.003,2.238-2.238V29.326C64,28.093,62.995,27.088,61.762,27.088z    M50.24,20.967h5.229v6.121H50.24V20.967z M15.251,11.562h33.496v15.526H15.251V11.562z M8.531,20.967h5.229v6.121H8.531V20.967z    M62.507,51.692c0,0.412-0.333,0.746-0.745,0.746H2.238c-0.412,0-0.746-0.335-0.746-0.746V29.326c0-0.412,0.335-0.745,0.746-0.745   h59.525c0.412,0,0.745,0.333,0.745,0.745V51.692z M52.893,43.34H11.107c-1.873,0-3.396,1.523-3.396,3.396   c0,1.873,1.523,3.396,3.396,3.396h41.785c1.871,0,3.396-1.523,3.396-3.396C56.288,44.863,54.764,43.34,52.893,43.34z M52.893,48.64   H11.107c-1.051,0-1.905-0.855-1.905-1.905c0-1.05,0.853-1.905,1.905-1.905h41.785c1.05,0,1.905,0.855,1.905,1.905   C54.797,47.785,53.942,48.64,52.893,48.64z M6.194,34.906c1.373,0,2.492-1.117,2.492-2.49c0-1.375-1.119-2.492-2.492-2.492   s-2.49,1.117-2.49,2.492C3.704,33.789,4.821,34.906,6.194,34.906z M6.194,31.417c0.552,0,0.999,0.447,0.999,0.999   c0,0.55-0.447,0.999-0.999,0.999c-0.55,0-0.999-0.449-0.999-0.999C5.195,31.864,5.644,31.417,6.194,31.417z M8.686,38.379   c0-1.373-1.119-2.49-2.492-2.49s-2.49,1.117-2.49,2.49s1.117,2.492,2.49,2.492S8.686,39.752,8.686,38.379z M6.194,39.378   c-0.55,0-0.999-0.447-0.999-0.999c0-0.55,0.449-0.999,0.999-0.999c0.552,0,0.999,0.449,0.999,0.999   C7.193,38.931,6.746,39.378,6.194,39.378z M6.194,35.889c-1.373,0-2.49,1.117-2.49,2.49s1.117,2.492,2.49,2.492   s2.492-1.119,2.492-2.492S7.568,35.889,6.194,35.889z M6.194,39.378c-0.55,0-0.999-0.447-0.999-0.999   c0-0.55,0.449-0.999,0.999-0.999c0.552,0,0.999,0.449,0.999,0.999C7.193,38.931,6.746,39.378,6.194,39.378z M6.194,29.924   c-1.373,0-2.49,1.117-2.49,2.492c0,1.373,1.117,2.49,2.49,2.49s2.492-1.117,2.492-2.49C8.686,31.041,7.568,29.924,6.194,29.924z    M6.194,33.415c-0.55,0-0.999-0.449-0.999-0.999c0-0.552,0.449-0.999,0.999-0.999c0.552,0,0.999,0.447,0.999,0.999   C7.193,32.966,6.746,33.415,6.194,33.415z M52.893,43.34H11.107c-1.873,0-3.396,1.523-3.396,3.396c0,1.873,1.523,3.396,3.396,3.396   h41.785c1.871,0,3.396-1.523,3.396-3.396C56.288,44.863,54.764,43.34,52.893,43.34z M52.893,48.64H11.107   c-1.051,0-1.905-0.855-1.905-1.905c0-1.05,0.853-1.905,1.905-1.905h41.785c1.05,0,1.905,0.855,1.905,1.905   C54.797,47.785,53.942,48.64,52.893,48.64z M52.893,43.34H11.107c-1.873,0-3.396,1.523-3.396,3.396   c0,1.873,1.523,3.396,3.396,3.396h41.785c1.871,0,3.396-1.523,3.396-3.396C56.288,44.863,54.764,43.34,52.893,43.34z M52.893,48.64   H11.107c-1.051,0-1.905-0.855-1.905-1.905c0-1.05,0.853-1.905,1.905-1.905h41.785c1.05,0,1.905,0.855,1.905,1.905   C54.797,47.785,53.942,48.64,52.893,48.64z M6.194,29.924c-1.373,0-2.49,1.117-2.49,2.492c0,1.373,1.117,2.49,2.49,2.49   s2.492-1.117,2.492-2.49C8.686,31.041,7.568,29.924,6.194,29.924z M6.194,33.415c-0.55,0-0.999-0.449-0.999-0.999   c0-0.552,0.449-0.999,0.999-0.999c0.552,0,0.999,0.447,0.999,0.999C7.193,32.966,6.746,33.415,6.194,33.415z M6.194,35.889   c-1.373,0-2.49,1.117-2.49,2.49s1.117,2.492,2.49,2.492s2.492-1.119,2.492-2.492S7.568,35.889,6.194,35.889z M6.194,39.378   c-0.55,0-0.999-0.447-0.999-0.999c0-0.55,0.449-0.999,0.999-0.999c0.552,0,0.999,0.449,0.999,0.999   C7.193,38.931,6.746,39.378,6.194,39.378z"/>
	<path style="fill:#FFDA93;" d="M13.76,20.967v6.121H8.531v-6.121H13.76z M50.24,20.967v6.121h5.229v-6.121H50.24z"/>
	<path style="fill:#FD8D63;" d="M61.762,28.581H2.238c-0.412,0-0.746,0.333-0.746,0.745v22.366c0,0.412,0.335,0.746,0.746,0.746   h59.525c0.412,0,0.745-0.335,0.745-0.746V29.326C62.507,28.914,62.174,28.581,61.762,28.581z M6.194,29.924   c1.373,0,2.492,1.117,2.492,2.492c0,1.373-1.119,2.49-2.492,2.49s-2.49-1.117-2.49-2.49C3.704,31.041,4.821,29.924,6.194,29.924z    M3.704,38.379c0-1.373,1.117-2.49,2.49-2.49s2.492,1.117,2.492,2.49s-1.119,2.492-2.492,2.492S3.704,39.752,3.704,38.379z    M52.893,50.131H11.107c-1.873,0-3.396-1.523-3.396-3.396c0-1.873,1.523-3.396,3.396-3.396h41.785c1.871,0,3.396,1.523,3.396,3.396   C56.288,48.608,54.764,50.131,52.893,50.131z"/>
</g>
<g id="Layer_1">
</g>
</svg>