<svg xmlns="http://www.w3.org/2000/svg" viewBox="1 7 38 26"><path fill="#b6dcfe" d="M4,32.5c-1.379,0-2.5-1.122-2.5-2.5V10c0-1.378,1.121-2.5,2.5-2.5h32c1.379,0,2.5,1.122,2.5,2.5v20c0,1.378-1.121,2.5-2.5,2.5H4z"/><path fill="#4788c7" d="M36,8c1.103,0,2,0.897,2,2v20c0,1.103-0.897,2-2,2H4c-1.103,0-2-0.897-2-2V10c0-1.103,0.897-2,2-2H36 M36,7H4c-1.657,0-3,1.343-3,3v20c0,1.657,1.343,3,3,3h32c1.657,0,3-1.343,3-3V10C39,8.343,37.657,7,36,7L36,7z"/><path fill="#dff0fe" d="M5 13H13V19H5z"/><path fill="#fff" d="M18 11H35V16H18z"/><path fill="#4788c7" d="M10.5 24h-5C5.225 24 5 23.775 5 23.5l0 0C5 23.225 5.225 23 5.5 23h5c.275 0 .5.225.5.5l0 0C11 23.775 10.775 24 10.5 24zM18.5 24h-5c-.275 0-.5-.225-.5-.5l0 0c0-.275.225-.5.5-.5h5c.275 0 .5.225.5.5l0 0C19 23.775 18.775 24 18.5 24zM26.5 24h-5c-.275 0-.5-.225-.5-.5l0 0c0-.275.225-.5.5-.5h5c.275 0 .5.225.5.5l0 0C27 23.775 26.775 24 26.5 24zM34.5 24h-5c-.275 0-.5-.225-.5-.5l0 0c0-.275.225-.5.5-.5h5c.275 0 .5.225.5.5l0 0C35 23.775 34.775 24 34.5 24zM5.5 27h17c.275 0 .5.225.5.5l0 0c0 .275-.225.5-.5.5h-17C5.225 28 5 27.775 5 27.5l0 0C5 27.225 5.225 27 5.5 27z"/></svg>